<svg xmlns="http://www.w3.org/2000/svg" xmlns:xlink="http://www.w3.org/1999/xlink" version="1.1" x="0px" y="0px" viewBox="0 0 90 90" enable-background="new 0 0 90 90" xml:space="preserve"><path fill="none" d="M165.05,5.577c0.519-0.819,1.556-2.365,1.556-2.365s-1.242,1.403-1.767,2.231  c-0.973,1.534-4.006,4.738-4.006,4.738S164.109,7.059,165.05,5.577z"></path><path fill="none" d="M159.813,15.223c0.168,0.221,0.847,0.525,1.959,0.525c1.297,0,2.006-0.413,2.006-0.625  s-0.709-0.625-2.006-0.625s-2.006,0.413-2.006,0.625c0,0.024,0.012,0.051,0.03,0.08L159.813,15.223z"></path><polygon points="10,22.078 46.252,0.739 82.504,22.078 46.252,43.295 "></polygon><polygon points="9.515,23.048 9.515,65.604 45.768,86.701 45.768,44.265 "></polygon><polygon points="46.738,44.265 82.988,23.048 82.988,65.483 46.738,86.701 "></polygon></svg>